<?xml version="1.0"?>
<svg id="Layer_1" xmlns="http://www.w3.org/2000/svg" version="1.1" viewBox="0 0 198.5 171.42">
  <defs>
    
  </defs>
  <g id="Layer_11" data-name="Layer_1">
    <g>
      <path class="st0" d="M86.5,166.42c-.1,0-.2-.1-.3-.1s-.2,0-.3.1c-.3.1-.5.3-.8.4-.3.2-.6.3-.8.5-.3.2-.6.4-.8.5-.3.2-.5.3-.8.4-.3.1-.5.2-.8.4-.3.1-.5.2-.8.4-.3.1-.5.2-.8.4-.3.1-.6.2-.9.3s-.6.1-.9,0c-.1,0-.3-.1-.4-.1-.2-.1-.4-.3-.5-.5-.1-.1-.2-.3-.2-.4v-.5c0-.1,0-.2-.1-.2-.1-.4-.4-.7-.9-.9-.4-.2-.9-.4-1.5-.5-.3-.1-.6-.1-.9-.2-.3,0-.6-.1-1-.1.3-.3.6-.6.8-.9.2-.3.4-.6.5-1,.1-.2.1-.5.1-.8s-.2-.5-.4-.7c-.3-.2-.7-.3-1.1-.4-.4,0-.8,0-1.2.1-.7.2-1.4.5-2.1.9s-1.1.9-1.4,1.4c-.2.3-.2.6-.1.8.1.3.3.5.6.8.2.2.5.3.8.4l-1.9.9c-.7.3-1.5.6-2.2.9-.8.3-1.6.5-2.4.7-.2,0-.4.1-.6.1s-.4.1-.6.1l-.5.1h-.4c-.1,0-.3.6-.3.6h-.9q-.1,0-.2-.1h-.1s-.1,0-.2-.1h-.2c-.1,0-.1-.1-.1-.1-.2-.1-.2-.2-.3-.2-.1-.2-.3-.3-.3-.5-.1-.2-.1-.3-.1-.5s0-.4.1-.6c.1-.2.2-.4.3-.6.5.2,1.1.3,1.8.3s1.3-.1,1.8-.4c.3-.1.6-.3.8-.6.2-.2.4-.5.5-.7.1-.3.1-.5,0-.8s-.3-.5-.7-.7c-.3-.2-.7-.3-1.1-.3s-.8,0-1.2.1-.8.2-1.1.3c-.4.2-.7.3-.9.5-.3.2-.6.5-.8.8-.2.2-.3.4-.4.6h-.1c-.8.6-1.7,1.1-2.5,1.6s-1.7,1-2.7,1.3c-.5.2-1,.3-1.4.5-.5.1-1,.3-1.5.3-.2,0-.4.1-.6.1s-.5.1-.7.1h-.7c-.2,0-.4-.1-.6-.1-.2-.1-.3-.2-.4-.3-.1-.1-.2-.3-.2-.4s-.1-.3-.1-.5v-.4c0-.4.1-.8.2-1.3.1-.4.3-.8.4-1.2.2-.7.5-1.5.8-2.2s.6-1.5.9-2.2h4.7c.2,0,.3-.1.4-.2.1-.1.1-.2.1-.3s-.1-.2-.1-.3c-.1-.1-.2-.2-.4-.2-.4-.1-.9-.1-1.4-.1h-2.6c1-1.8,2.1-3.5,3.5-5.1.1-.1.1-.3.1-.4-.1-.1-.2-.2-.3-.3-.2-.1-.3-.1-.5-.1s-.3.1-.5.2c-1.6,1.8-3,3.7-4.2,5.7-.9,0-1.7.1-2.6.2-.9.1-1.8.1-2.6.2-.1,0-.3.1-.3.1-.1.1-.1.2-.1.2,0,.1.1.2.2.2.1.1.2.1.4.1.8,0,1.5-.1,2.3-.1s1.5-.1,2.3-.1c-.4.7-.7,1.3-1,2s-.6,1.3-.8,2c0,.1-.1.2-.1.3h-.1c-.9.5-1.7,1-2.5,1.5s-1.8.9-2.8,1.3c-.5.2-1,.3-1.5.4-.5.1-1,.2-1.6.3-.2,0-.4.1-.7.1-.2,0-.5.1-.7.1h-.7c-.2,0-.4-.1-.7-.1-.2-.1-.3-.2-.4-.3-.1-.1-.2-.2-.2-.4,0-.1-.1-.3-.1-.4,0-.4.1-.7.1-1.1,0-.1.1-.3.1-.4.1-.4.3-.8.4-1.2.2-.7.5-1.4.8-2.1.3-.7.6-1.4.9-2.1h4.4c.2,0,.3-.1.4-.2.1-.1.1-.2.1-.3s0-.2-.1-.3-.2-.2-.4-.2c-.4-.1-.9-.1-1.4-.1h-2.6c1-1.8,2.1-3.5,3.5-5.1.1-.1.1-.3.1-.4-.1-.1-.2-.2-.3-.3-.2-.1-.3-.1-.5-.1s-.3.1-.4.2c-1.6,1.8-3,3.7-4.2,5.7-.9,0-1.7.1-2.6.2-.9.1-1.8.1-2.6.2-.2,0-.3.1-.3.1-.1.1-.1.2-.1.2,0,.1.1.2.2.2.1.1.2.1.4.1.8,0,1.5-.1,2.3-.1s1.5-.1,2.3-.1c-.4.7-.7,1.3-1,2s-.6,1.3-.8,2c0,.1-.1.2-.1.3-.2.1-.4.1-.6.2-.2.1-.4.2-.7.3l-2,.9c-.8.3-1.5.7-2.3.9-.8.3-1.6.6-2.5.8-.3.1-.6.1-.9.2-.1,0-.2,0-.3.1l-.6.1h-.2.2l-.3.6h-.3l-.1-.5h-.5q-.1,0-.2-.1h-.1q-.1,0-.2-.1h-.2c-.1,0-.1-.1-.1-.1q-.2-.1-.3-.2c-.2-.1-.3-.3-.4-.4-.1-.1-.1-.3-.1-.5s0-.4.1-.6c.1-.2.2-.4.3-.6.5.2,1.1.3,1.8.3s1.3-.1,1.8-.3c.3-.1.6-.3.8-.5.2-.2.4-.4.5-.7.1-.2.1-.5,0-.7s-.3-.4-.7-.6c-.4-.2-.7-.3-1.1-.3s-.8,0-1.2.1c-.4.1-.8.2-1.1.3-.4.1-.7.3-.9.5-.3.2-.6.5-.8.7-.1.2-.3.3-.4.5h0c-.5.1-1,.2-1.5.4s-1,.3-1.4.5c-.5.1-.9.3-1.3.4-.4.1-.9.2-1.4.4-.5.1-1,.2-1.5.3s-1,.2-1.6.3c-.5.1-1.1.2-1.6.3-.5.1-1.1.2-1.6.2-.4,0-.8,0-1.3-.1-.4-.1-.8-.2-1.2-.3s-.7-.3-.9-.6c-.3-.2-.4-.5-.4-.8v-.6c.7-.5,1.5-1.1,2.3-1.6s1.6-1.1,2.4-1.6,1.5-1.1,2.2-1.7c.7-.6,1.3-1.2,1.8-1.9.2-.3.4-.6.5-.9.1-.3.2-.6.3-.9v-.5c0-.2,0-.3-.1-.5,0-.2-.1-.3-.2-.5-.1-.2-.2-.3-.3-.4-.2-.2-.4-.3-.7-.3-.2-.1-.5-.1-.8-.1s-.5.1-.8.1c-.3.1-.5.1-.7.2-.5.2-.9.4-1.2.6-.4.2-.7.5-1,.8-.7.6-1.3,1.2-1.9,1.9s-1.1,1.4-1.5,2.1c-.5.8-.9,1.5-1.3,2.3s-.7,1.6-.8,2.4c-.1.4-.1.9-.1,1.3s.2.8.6,1.2c.3.3.7.6,1.1.8s.9.4,1.5.5c.7.1,1.4.2,2.1.1.7,0,1.4-.1,2.1-.2.7-.1,1.3-.2,2-.4.7-.1,1.3-.3,2-.4.6-.1,1.2-.3,1.8-.4.6-.2,1.2-.3,1.8-.5s1.3-.4,1.9-.6c.1-.1.3-.1.4-.2-.1.3-.1.5-.1.8,0,.4.1.8.4,1.1s.6.6,1,.8.9.4,1.4.5,1.1.2,1.6.1c.5,0,1.1-.1,1.6-.2.5-.1,1-.2,1.5-.4.5-.1,1-.3,1.4-.5.5-.2.9-.4,1.4-.6.5-.2,1-.4,1.5-.7.5-.2,1-.5,1.4-.7.2-.1.5-.3.8-.4-.1.4-.2.7-.2,1.1s0,.8.2,1.2.5.7.9,1c.5.3,1.1.5,1.7.6.6.1,1.2.1,1.9,0s1.3-.2,1.9-.4c.6-.2,1.2-.3,1.7-.5.6-.2,1.2-.4,1.8-.7.6-.2,1.2-.5,1.7-.8s.9-.5,1.3-.8c0,.1,0,.2-.1.4,0,.4,0,.8.2,1.2s.5.7.9,1c.5.3,1.1.5,1.7.6.6.1,1.2.1,1.9,0,.6-.1,1.3-.2,1.9-.4.6-.2,1.2-.3,1.7-.5.6-.2,1.2-.4,1.8-.7.6-.2,1.2-.5,1.7-.8.4-.2.8-.7.8-.7h0c0,.4.1.8.4,1.1.2.3.6.6,1,.8s.9.4,1.4.5,1.1.2,1.6.1c.5,0,1.1-.1,1.6-.2.5-.1,1-.2,1.5-.4.5-.1,1-.3,1.4-.5.5-.2.9-.4,1.4-.6.5-.2,1-.4,1.5-.7.5-.2,1-.5,1.4-.7.3-.2.6-.3,1-.5.2-.1.3-.2.4-.3h0c.6,0,1.3.1,1.9.2.6.1,1.2.2,1.8.3h.2l.2.1.2.1c.1,0,.1.1.1.1l.1.1.1.1c0,.1.1.1.1.1v.8c.1.2.1.4.2.6.1.2.2.4.4.6.2.2.4.3.6.5.2.1.5.2.8.3.4.1.9.2,1.3.1.4,0,.9-.1,1.3-.3.4-.1.8-.3,1.2-.5.4-.2.8-.3,1.1-.5.4-.2.8-.4,1.1-.5.4-.2.7-.4,1.1-.6.2-.1.3-.2.5-.3s.4-.3.5-.4l.5-.5c.1-.2.2-.3.3-.4v-.2h.2q-.4.5-.5.4ZM59.3,166.12c.1-.1.2-.2.4-.4s.5-.3.8-.4c.3-.1.7-.2,1-.1.4,0,.7.1.8.3s.1.4-.1.6c-.2.2-.4.3-.6.4-.3.1-.5.2-.8.2h-.9c-.3,0-.6-.1-.9-.1.1-.2.2-.4.3-.5ZM19.7,166.12c.1-.1.2-.2.4-.4.2-.2.5-.3.8-.4.3-.1.7-.2,1-.1.4,0,.7.1.8.3.1.2.1.4-.1.6-.2.2-.4.3-.6.4-.3.1-.5.2-.8.2h-.9c-.3,0-.6-.1-.9-.1.1-.2.2-.4.3-.5ZM2.8,164.22c.1-.4.3-.7.5-1,.4-.7.8-1.3,1.2-1.9.5-.6,1-1.3,1.5-1.9.2-.3.5-.5.7-.7s.5-.5.8-.7c.1-.1.3-.2.4-.3.2-.1.3-.2.5-.3s.4-.2.6-.2c.2-.1.4-.1.6-.1s.3.1.3.2c.1.1.1.2.1.4v.7c0,.3-.1.5-.2.8-.1.3-.3.5-.5.7-.3.4-.7.8-1,1.2s-.8.7-1.3,1.1c-.2.1-.4.3-.7.5-.3.2-.6.4-1,.7-.4.2-.7.5-1.1.7s-.7.5-1,.7-.5.4-.7.5-.3.2-.3.2c.3-.6.4-1,.6-1.3ZM72.5,165.22c-.2.3-.5.6-.9.9-.3,0-.6,0-.9-.1-.3,0-.6-.1-.8-.2-.1-.1-.2-.1-.2-.2v-.3c0-.1.1-.2.2-.3s.1-.2.2-.2c.4-.4,1-.7,1.6-1,.1,0,.2-.1.4-.1.1-.1.3-.1.4-.1h.4c.1,0,.2.1.2.2,0,.2,0,.5-.2.7-.1.3-.2.5-.4.7Z"></path>
      <path class="st0" d="M167.5,164.72c.1.1.2.1.3.1s.3,0,.4-.1c.2-.1.5-.3.7-.4.3-.1.5-.2.8-.4.1,0,.2-.1.2-.2v-.2c0-.1-.1-.1-.2-.1h-.3c-.4.1-.7.2-1,.3s-.6.3-.9.5c-.1.1-.2.2-.1.2q0,.2.1.3Z"></path>
      <path class="st0" d="M195.6,166.32l-.2.3c-.1-.1-.2-.1-.3-.2h-.4c-.9.3-1.8.6-2.7.9-.9.3-1.9.4-2.9.5h-.2c-.4,0-.8,0-1.3.1-.5,0-1,0-1.6-.1.1-.2.2-.5.3-.7s.1-.5.2-.7c0-.3,0-.5-.1-.7s-.3-.4-.5-.6c-.3-.1-.6-.3-.9-.3-.3-.1-.7-.1-1-.2h-1c-.3,0-.7.1-1,.1-.3.1-.6.2-.8.3s-.4.3-.6.5c-.2.2-.2.4-.3.6v.2c-.4.1-.7.1-1.1.2q-.1,0-.2.1c-.3.1-.6.2-1,.3s-.7.2-1.1.4c-.4.1-.7.2-1.1.4-.7.2-1.4.4-2.1.6-.7.2-1.4.4-2.1.5-.6.1-1.1.2-1.7.3-.6.1-1.2.2-1.8.2h-.7c-.3,0-.5,0-.7-.1-.2,0-.5-.1-.7-.2-.2-.1-.4-.2-.5-.3-.2-.2-.2-.4-.1-.7.1-.2.2-.4.4-.6l.6-.6c.1-.1.3-.2.4-.3.2-.1.2-.2.3-.4,0-.1,0-.2-.1-.4-.1-.1-.3-.2-.5-.2s-.4,0-.6.1c-.2.1-.3.2-.5.2-.1.1-.3.2-.4.3-.2,0-.3.1-.5.2-.6.3-1.3.6-2,.9-.7.3-1.4.6-2.1.9-.3.1-.7.3-1,.4-.4.1-.7.3-1.1.4-.4.1-.8.2-1.2.3s-.8.1-1.2,0c-.4,0-.7-.1-.9-.2-.2-.1-.4-.3-.6-.5-.1-.2-.2-.4-.3-.6-.1-.2-.1-.4-.1-.7v-.4h0c1.4-.7,2.8-1.5,4-2.4,1.3-.9,2.4-1.8,3.4-2.7.6-.5,1.1-1.1,1.6-1.7.5-.6.9-1.2,1.2-1.8.1-.3.2-.5.1-.8,0-.3-.2-.6-.5-.8-.2-.1-.4-.2-.6-.3-.2-.1-.5-.1-.7-.1s-.5.1-.7.1c-.3.1-.5.1-.7.2-.9.3-1.7.6-2.4,1s-1.4.9-1.9,1.4c-.6.5-1.1,1.1-1.6,1.6-.5.6-.9,1.2-1.2,1.7s-.6,1.1-.9,1.7c-.3.6-.5,1.1-.7,1.7l-.1-.1-.1-.1c-.3-.3-.6-.5-1-.7s-.8-.3-1.4-.3c-1-.1-2,0-3,.2s-1.9.6-2.6,1.1c-.1.1-.2.2-.3.2h-.1c-.2.1-.4.1-.7.2-.2.1-.5.2-.7.3s-.4.2-.6.3c-.3.1-.6.3-.9.4-.3.1-.6.3-.9.4-.6.2-1.3.5-2,.6-.7.2-1.4.3-2.2.3h-.8c-.3,0-.6,0-.9-.1-.3-.1-.5-.1-.7-.3-.2-.1-.3-.3-.4-.5-.1-.2,0-.4,0-.7.1-.2.2-.4.2-.7v-.2c0-.1.1-.2.1-.3s.1-.2.1-.3c0,0,0-.1.1-.1,0,0,0-.1.1-.1.1-.1.3-.2.4-.4.1-.1.2-.3.1-.4,0-.1-.1-.3-.3-.4-.2-.1-.4-.1-.6-.1-.3,0-.5.1-.7.2-.2.1-.4.3-.5.4v-.3l-.2.2c-.2.1-.3.3-.6.4-.2.1-.4.3-.7.5-.4.3-.9.6-1.3.8-.5.3-.9.5-1.4.7-.3.1-.6.2-1,.4-.4.1-.8.2-1.2.2-.1,0-.3,0-.5-.1-.2,0-.3-.1-.4-.1-.1-.1-.2-.2-.3-.3-.1-.2-.1-.3-.1-.5v-.9c0-.1,0-.2-.1-.3s-.2-.1-.3-.1h-.4c-.1,0-.2.1-.3.2v.1c-.1,0-.2,0-.3.1-.8.5-1.6,1-2.4,1.5s-1.7.9-2.7,1.2c-.5.2-1,.3-1.4.4-.5.1-1,.2-1.5.3-.2,0-.4.1-.6.1s-.5.1-.7.1h-.7c-.2,0-.4-.1-.6-.1-.2-.1-.3-.2-.4-.3s-.2-.2-.2-.4c0-.1-.1-.3-.1-.4,0-.4.1-.7.1-1,0-.2.1-.3.1-.5.1-.4.3-.8.4-1.2.2-.7.5-1.4.8-2,.3-.7.6-1.3.9-2h4.4c.2,0,.3-.1.4-.2.1-.1.1-.2.1-.3s0-.2-.1-.3-.2-.2-.4-.2c-.4-.1-.9-.1-1.4-.1h-2.6c1-1.7,2.1-3.4,3.4-4.9.1-.1.1-.3.1-.4-.1-.1-.2-.2-.3-.3-.2-.1-.3-.1-.5-.1s-.3.1-.4.2c-1.6,1.7-2.9,3.6-4.1,5.5-.8,0-1.7.1-2.5.2-.9.1-1.7.1-2.5.2-.2,0-.3.1-.3.1-.1.1-.1.2-.1.2,0,.1.1.2.2.2.1.1.2.1.4.1.7,0,1.5-.1,2.2-.1s1.5-.1,2.2-.1c-.4.6-.7,1.3-1,1.9-.3.7-.6,1.5-.9,2.3h0c-.4.1-.9.2-1.3.4-.5.2-1,.4-1.6.5-.4.1-.8.2-1.3.3-.4.1-.9.2-1.3.3-.5.1-.9.3-1.4.4-.4.1-.9.3-1.3.4-.4-.5-.9-.9-1.6-1.2s-1.4-.6-2.1-.8c-.1,0-.2-.1-.4-.1s-.3-.1-.4-.1c-.1-.1-.3-.1-.4-.2-.1-.1-.2-.2-.2-.2-.1-.2-.1-.4.1-.7s.3-.5.5-.6c.1-.1.2-.2.3-.3.1-.1.2-.2.3-.2s.1-.1.2-.1.1-.1.2-.1l.2-.1s.1,0,.2-.1h0c0,.1,0,.3-.1.4,0,.1-.1.3-.2.4-.1.1-.2.3-.2.4-.1.1-.1.2,0,.3,0,.1.1.1.2.2.1,0,.2.1.3,0,.1,0,.2-.1.3-.2l.1-.1c.1-.1.3-.3.4-.5.2-.2.3-.4.3-.6.1-.2.1-.4,0-.6,0-.2-.2-.4-.4-.5-.3-.2-.6-.2-.9-.2s-.6.1-.9.3c-.3.1-.6.3-.8.5-.3.2-.5.3-.6.5-.2.2-.4.4-.5.6-.2.2-.3.4-.4.7-.1.2-.1.5-.1.7s.1.4.3.6c.2.2.3.3.6.5.2.1.5.2.8.3s.6.2.8.3c.3.1.5.2.8.3.4.2.8.3,1.2.6.4.2.7.5.9.8h0c-.3.1-.6.2-.9.4-.3.1-.6.3-.8.4-.3.2-.5.3-.7.5s-.3.4-.3.6,0,.4.2.6c.1.2.3.4.6.5.3.1.6.2,1,.2.3,0,.7-.1,1-.2.5-.2.9-.4,1.2-.8.3-.3.5-.7.6-1.1v-.8c.4-.1.7-.2,1.1-.4.4-.1.7-.2,1.1-.3.5-.1,1.1-.3,1.6-.4.6-.1,1.1-.3,1.7-.4.6-.2,1.1-.3,1.6-.5,0,0,.1,0,.1-.1-.1.3-.2.7-.2,1,0,.4,0,.8.2,1.2.1.4.5.7.9,1,.5.3,1.1.5,1.7.6s1.2.1,1.9,0c.6-.1,1.3-.2,1.9-.4s1.2-.3,1.7-.5c.6-.2,1.2-.4,1.8-.7.6-.2,1.2-.5,1.7-.8.6-.3,1.1-.6,1.5-1,.1-.1.2-.2.4-.3,0,.1,0,.2.1.3.1.3.2.5.4.7.3.2.6.4,1,.5s.8.2,1.2.2c.3,0,.6,0,1-.1.3-.1.7-.1.9-.2.6-.2,1.3-.4,1.9-.8.6-.3,1.2-.6,1.8-1l.5-.2c-.1.2-.1.4-.1.6v.6c.1.3.2.5.4.7s.5.3.8.5c.3.1.6.2,1,.3s.7.1,1.1.1c.9,0,1.7,0,2.6-.2.9-.2,1.7-.4,2.5-.6.4-.1.8-.3,1.2-.4.3-.1.6-.2.9-.4,0,.1-.1.2-.1.3-.1.3-.1.7.2,1,.3.4.7.6,1.1.7.5.1.9.2,1.4.1.5,0,1-.1,1.5-.2.5-.1,1-.3,1.4-.4.6-.2,1.1-.3,1.6-.5s1-.4,1.6-.6l1.3-.5c.1.4.2.8.5,1.1.2.4.6.7,1.2.9.5.2,1,.4,1.5.4.5.1,1.1.1,1.7,0,.6-.1,1.1-.2,1.6-.3s1-.3,1.5-.5.9-.4,1.4-.6c.4-.2.9-.4,1.4-.6.2-.1.4-.2.7-.3,0,.3,0,.5.1.7s.3.5.5.6c.2.2.5.3.8.5.3.1.7.2,1.1.3.7.1,1.4.1,2.1.1.7-.1,1.4-.1,2.1-.2.8-.1,1.7-.3,2.4-.5.8-.2,1.6-.4,2.4-.6.5-.1,1-.3,1.4-.5.5-.2.9-.3,1.4-.5.4-.2.9-.3,1.3-.5q.1,0,.2-.1c.1-.1.3-.1.4-.2,0,.1-.1.2-.1.3-.1.2-.1.3-.2.5q0,.1-.1.2c-.1.3-.1.5,0,.7s.2.4.4.6c.2.1.4.2.6.3h.1c.3.1.6.1.9.1s.6,0,1-.1c.5-.1,1-.3,1.5-.6.4-.3.8-.6,1.1-.9l1.4.1c.9,0,1.8,0,2.7-.1.7-.1,1.4-.2,2-.3.7-.1,1.5-.3,2.2-.6.7-.2,1.3-.5,1.8-.9.1-.1.2-.2.2-.3s-.1,1.1-.2,1.1ZM155,164.82c.1-.3.3-.6.4-.9.3-.5.6-1,.9-1.5.3-.5.7-1,1.1-1.5.4-.5.9-.9,1.5-1.4.5-.4,1.1-.8,1.8-1.1.3-.1.6-.3.9-.4.4-.1.7-.2,1-.3h.2c0,.2-.1.4-.1.6-.3.5-.6,1-1,1.5s-.8,1-1.3,1.4c-.8.8-1.8,1.6-2.8,2.3s-2.1,1.4-3.1,2.2c.3-.3.4-.6.5-.9ZM101.1,170.82c-.1.2-.3.3-.5.4-.1,0-.2.1-.3.1h-.3q-.1,0-.1-.1v-.1c0-.1,0-.2.1-.3s.2-.2.3-.2c.1-.1.3-.1.4-.2.1-.1.3-.1.4-.2.1-.1.2-.1.3-.1-.1.3-.2.5-.3.7ZM151.5,167.32c-.4.2-.7.3-1.1.5-.4.1-.7.3-1.1.4-.4.1-.7.3-1.1.4-.4.1-.8.2-1.1.4-.3.1-.7.2-1.1.3-.4.1-.8.1-1.2.1s-.7-.1-.7-.3c-.1-.2-.1-.4.1-.6.1-.2.3-.5.5-.7l.5-.5c.5-.4,1-.7,1.7-1s1.4-.4,2.1-.5c.4,0,.8-.1,1.3,0,.5,0,.8.2,1.1.4.1.1.3.2.3.3.1.1.2.2.4.3,0,0,.1.1.2.1s.1.1.2.1l-1,.3ZM183.8,168.72l-.2.2c-.1.1-.3.2-.5.3s-.4.2-.7.3c-.2.1-.5.1-.7.1s-.4-.1-.5-.2c-.1-.1-.1-.2-.2-.3v-.3c0-.1,0-.2.1-.3,0-.1.1-.2.1-.3s0-.1.1-.2q0-.1.1-.2c.3.2.7.4,1.2.6.5.1,1,.3,1.5.4-.2-.2-.3-.1-.3-.1ZM185.1,166.62c-.1.2-.1.4-.2.5,0,.1-.1.2-.1.3s-.1.2-.1.3c-.5-.1-1-.2-1.5-.4-.2-.1-.3-.1-.5-.2-.2-.1-.4-.2-.5-.3s-.2-.3-.3-.4c0-.1,0-.3.2-.4.1-.1.2-.2.4-.2.2-.1.4-.1.6-.1h.6c.2,0,.4,0,.5.1.2,0,.4.1.6.1.2.1.3.2.4.3,0,0,0,.2-.1.4Z"></path>
    </g>
  </g>
  <g id="Layer_3">
    <path class="st0" d="M124.6,70.32c-.3,0-.7,0-1-.3-.3-.2-.5-.5-.5-.9,0,0-.3-1.8-.9-4.6,0-.1,0-.3-.1-.4v-.6c-.1-.7-.3-1.4-.4-2.2-.9-4.7-2-10.8-2.8-15.4-1.5-8.7-3.6-19.7-3.6-19.7l-1.2-.1s-.1.3-.3.8c-.6,1.7-2.2,6.2-4.5,12.3-.4,1-.8,2-1.2,3.1-4.6,11.9-11.5,28.6-19.1,43.1-.7,1.3-1.3,2.5-2,3.8,0,0-.8,1.6-2.1,3.9-.1.1-.1.2-.2.3-.1.1-.1.3-.2.4h0c-.2.3-.3.6-.5.9-.1.2-.2.4-.3.6v.1s0,.1-.1.1c0,.1-.1.2-.1.3l-.3.5-.8,1.4-.3.5s-2.4,4.3-4.2,7.2c0,.1-.1.1-.1.2-2,3.1-10.2,14.7-12.4,17.3-.1.1-.1.2-.2.3h0c-4,4.8-8.5,9.2-13.1,12.3-.8.5-1.6,1-2.4,1.5-1.2.7-2.4,1.3-3.6,1.7-1.2.5-2.4.9-3.6,1.3-1.1.3-2.2.6-3.4.7h-.1c-1.5.3-3.1.4-4.7.4-2.7,0-5.4-.3-7.9-1h.4c-1.5-.4-3-.9-4.4-1.5-2-.8-3.8-1.9-5.6-3.1-3.4-2.4-6.3-5.5-8.4-9-2.5-4.1-4.1-9-4.4-14.1,1.6,14.2,13.6,25.2,28.3,25.2h3.4c.5,0,1-.1,1.5-.2.2,0,.4-.1.6-.1s.4-.1.7-.1c.2,0,.4-.1.7-.1.2,0,.3-.1.5-.1.1,0,.2-.1.3-.1s.2,0,.3-.1c.1,0,.2-.1.3-.1.3-.1.7-.2,1-.3s.5-.2.8-.3h.1c.3-.1.5-.2.8-.3.1,0,.2-.1.2-.1.3-.1.5-.2.8-.3h.1c.1,0,.1-.1.2-.1s.2-.1.3-.1h.1c.2-.1.5-.2.7-.3.1,0,.1-.1.2-.1.2-.1.4-.2.6-.3.1,0,.1-.1.2-.1.2-.1.4-.2.6-.4.1,0,.1-.1.2-.1.2-.1.5-.3.7-.5.1-.1.2-.1.3-.2.4-.3.7-.6,1.1-.9h0l.1-.1c.7-.6,1.3-1.1,2-1.8l.1-.1c.2-.2.4-.4.6-.5h0c.3-.3.6-.6.9-1q.1-.1.2-.2h0c2.1-2.2,4.3-4.8,6.5-7.8v-.1c1.9-2.4,3.8-5.2,5.9-8.5h0c1.6-2.6,3.3-5.4,5.1-8.6,0,0,.7-1.7,3.3-6.5.5-.9,1-1.8,1.4-2.7.1,0,.1-.1.1-.2.3-.6.7-1.3,1-1.9v-.1c.1-.2.2-.5.3-.7,2.6-5.1,5.1-10.7,7.8-16.6h0c.8-1.7,1.5-3.5,2.3-5.3,5.3-12.3,10-24.7,13.9-35.5.3-.7.5-1.4.8-2.1,6.3-17.9,10.2-30.9,10.3-31.1.2-.6.7-1,1.4-.9.6.1,1.1.5,1.2,1.1l1.8,14.4c0,.2.2,1.9.4,2.8h0l.1.6,7.4,42.4.4,2.4h0l.1.4.8,4.9c.1.5-.5,1.2-1.2,1.3Z"></path>
  </g>
  <g id="Layer_2">
    <path class="st0" d="M190.6,116.02h0c-5.6,0-10.8,1.3-15.4,3.7-1.5.8-2.9,1.6-4.2,2.6-2.7,1.9-5.1,4.3-7.2,6.9-.4.6-.8,1.2-1.3,1.7-3.5,4.2-8.6,6.8-14.5,6.8-9.3.1-17.1-6.6-18.8-15.5h1c11-.1,20.5-6.1,25.6-14.9.1-.1.1-.3.2-.4.6-1.2,1-2.5.9-3.9v-1c-.1-1.2-.5-2.3-1.1-3.3-1.1-1.9-4.1-3.9-8-4h-1.2.3c-12.6.4-22.7,10.5-23,23.1-1.9-.4-3.7-1.1-5.4-1.9-1.4-.6-2.7-1.4-4-2.2l.9-1.8c.4-.9.8-1.7,1.1-2.4.1-.2.2-.4.3-.6.1-.2.2-.4.2-.6,0-.1.1-.1.1-.2.1-.2.1-.3.2-.5q0-.1.1-.2c0-.1.1-.1.1-.2v-.1h0v-.1c.1-.2.2-.4.2-.6.4-1,.7-2,1-3,0-.1.1-.2.1-.4.1-.6.2-1.3.2-2,0-.6-.1-1.2-.2-1.7,0-.2-.1-.4-.1-.5s-.1-.2-.1-.3v-.1c0-.1-.1-.2-.1-.4-.1-.2-.1-.3-.2-.5-.1-.1-.1-.3-.2-.4,0-.1-.1-.2-.2-.3-.1-.2-.3-.4-.4-.6-.1-.1-.1-.2-.2-.3,0,0,0-.1-.1-.1-1.5-1.9-3.9-3.1-6.6-3.1-3.6,0-6.6,2.3-7.8,5.5-.1.2-.1.3-.2.5-.1.3-.1.5-.2.8-.1.6-.2,1.1-.2,1.7,0,.8.1,1.6.4,2.4.1.2.1.4.2.6,0,.1.1.2.1.4,0,.1.1.1.1.2.1.1.1.2.2.4.2.4.5.9.7,1.3,1.4,2.6,3.2,4.9,5.2,7-2.3,3.8-5,7.4-8.1,10.6l-.1.1c-1.8,1.9-3.6,3.6-5.3,5.2h0c.3-.9.6-1.8.9-2.7.5-1.9.8-4,.8-6v-.2h0c0-5.4-1.8-10.3-4.9-14.3-2.7-3.5-6.3-6.3-10.4-7.9-2.5-1.1-8.1-1.3-8.1-1.3h-.7c-5.2,0-9.9,1.7-13.8,4.5-.1.1-.2.2-.3.2h0c-.4.3-.8.6-1.1.9h0l-.1.1c-.1.1-.2.2-.3.3-.1.1-.3.2-.4.3-2.2,2-4,4.4-5.4,7.2.1,0,.2-.1.3-.1,2.2-2.4,5-4.3,8.1-5.5,2.4-.9,5-1.5,7.8-1.5.9,0,1.8,0,2.7.1,3.8.6,7.1,2,7.1,2,7.1,3.6,11.9,10.9,12,19.4,0,4-1,7.8-2.9,11-1.3,2.3-3.1,4.4-5.1,6.1-.3.2-.6.4-.8.7.6-.2,1.2-.4,1.7-.6h.1c.2-.1.4-.2.6-.3,11.4-5,21-13.1,28-23.2l.1-.1c.4-.5.7-1.1,1.1-1.6,3.3,2.4,7.1,4.1,11.2,4.9,1.5,11.8,11.6,20.8,23.7,20.8,8-.1,15-4,19.2-10,.5-.6,1-1.3,1.4-2,5.3-8.3,14.6-13.9,25.2-14,1.8,0,3.5.1,5.2.4-2.4-.7-5.1-1.1-7.9-1ZM136.6,103.52c1.2-.9,2.6-1.6,4-2.2.7-.3,1.5-.5,2.3-.7.1,0,.2-.1.3-.1h0c.4-.1.8-.1,1.2-.1,3.2,0,5.9,2.6,5.9,5.9,0,1.5-.5,2.9-1.4,3.9h0c-.1.2-.3.3-.4.4h0c-.2.2-.4.4-.7.6-1.6,1.5-3.4,2.8-5.4,3.9-3.6,2-7.7,3.1-12,3.3h-1.3c-.1-6,2.9-11.5,7.5-14.9Z"></path>
  </g>
</svg>